<?xml version="1.0"?>
<svg width="313.9" height="329.7" xmlns="http://www.w3.org/2000/svg" xmlns:svg="http://www.w3.org/2000/svg" version="1.1">
 <title id="title8313">A hot cup of tea or coffee</title>
 <defs id="defs8248">
  <filter color-interpolation-filters="sRGB" id="filter3982">
   <feGaussianBlur id="feGaussianBlur3984" stdDeviation="6.32"/>
  </filter>
  <filter color-interpolation-filters="sRGB" height="1.21" id="filter1004" width="1.11" x="-0.06" y="-0.1">
   <feGaussianBlur id="feGaussianBlur1006" stdDeviation="2.6"/>
  </filter>
  <filter color-interpolation-filters="sRGB" height="1.05" id="filter1099" width="1.11" x="-0.06" y="-0.03">
   <feGaussianBlur id="feGaussianBlur1101" stdDeviation="0.21"/>
  </filter>
  <filter color-interpolation-filters="sRGB" height="1.07" id="filter1254" width="1.03" x="-0.01" y="-0.03">
   <feGaussianBlur id="feGaussianBlur1256" stdDeviation="1.38"/>
  </filter>
 </defs>
 <metadata id="metadata876">image/svg+xmlOpenclipartA hot cup of tea or coffee2010-04-19T17:15:59A cup of hot tea (or Coffee)https://openclipart.org/detail/48949/a-cup-of-hot-tea-by-sheikh_tuhinsheikh_tuhincoffeecupdrinkshomehottea</metadata>
 <g class="layer">
  <title>Layer 1</title>
  <g id="layer1">
   <ellipse cx="214.11" cy="285.62" fill="#000000" id="path3182" rx="149.15" ry="67.48" stroke-width="0.69" transform="translate(-61 -39)"/>
   <ellipse cx="153.11" cy="246.62" fill="#000000" filter="url(#filter1254)" id="ellipse1208" rx="111.83" ry="50.6" stroke-width="0.51"/>
   <ellipse cx="153.11" cy="246.62" fill="#000000" id="path3974" rx="94.27" ry="42.65" stroke="#dbac90" stroke-miterlimit="4" stroke-width="1.95"/>
   <ellipse cx="186.78" cy="1163.4" fill="#000000" filter="url(#filter3982)" id="path3976" opacity="0.8" rx="217.69" ry="98.49" transform="matrix(0.356065 0 0 0.373356 87.0439 -200.319)"/>
   <path d="m68.32,150.63l11.74,76.52c1.15,22.04 33.34,39.7 72.88,39.7c39.8,0 72.14,-17.89 72.91,-40.12l11.73,-76.1l-169.25,0l-0.01,0z" fill="#000000" id="rect3176" stroke-width="0.69"/>
   <path d="m231.69,187.02c-11.47,39.46 -23.03,48.69 -49.07,55.57c-49.03,12.96 -92.73,-8.89 -102.12,-16.51c-0.24,-0.2 -0.46,-0.39 -0.7,-0.59l0.25,1.66c1.16,22.04 33.35,39.7 72.89,39.7c39.8,0 72.14,-17.89 72.91,-40.12l5.84,-39.71z" fill="#000000" id="path1268" stroke-width="1px"/>
   <path d="m30.26,119.49l7.74,96.26c5.38,2.91 4.49,4.62 14.88,8.1l-4.2,-107.16l-18.42,2.8z" fill="#ffd8bf" fill-opacity="0.42" id="path1084" stroke-width="1px" transform="translate(57.163 33.939)"/>
   <ellipse cx="152.94" cy="149.17" fill="#000000" id="path3172" rx="84.66" ry="47.52" stroke-width="0.76"/>
   <ellipse cx="152.95" cy="149.2" fill="#000000" id="path3180" rx="75.86" ry="42.58" stroke-width="0.69"/>
   <ellipse cx="152.95" cy="151.62" fill="#000000" id="path3168" rx="75.86" ry="40.16" stroke-width="0.67"/>
   <ellipse cx="151.93" cy="160.77" fill="#000000" filter="url(#filter1004)" id="ellipse974" rx="56.66" ry="29.99" stroke-width="0.5"/>
   <path d="m232.24,175.55c0,0 -4.25,2.8 -5.21,6.29c-0.95,3.49 -2.54,12.51 -2.54,12.51c0,0 -1.39,-7.43 -1.33,-9.33c0.06,-1.91 2.03,-7.81 2.03,-7.81l7.05,-1.66z" fill="#000000" filter="url(#filter1099)" id="path1089" stroke-width="1px"/>
   <path d="m238.3,168.92c-7.25,-0.56 -13.7,4.64 -14.64,11.93l-0.48,3.65c0.14,-1.02 0.42,-1.98 0.83,-2.87c0.94,-2.06 2.56,-3.71 4.53,-4.7c0.01,-0.01 0.02,-0.02 0.03,-0.02c0.27,-0.14 0.56,-0.26 0.84,-0.37c0.01,-0.01 0.02,-0.01 0.03,-0.02c0.58,-0.22 1.2,-0.38 1.83,-0.49c0.33,-0.06 0.65,-0.11 0.99,-0.14c0.66,-0.04 1.32,-0.02 2,0.07l19.64,2.53c0.68,0.09 1.33,0.23 1.95,0.44c0.63,0.22 1.22,0.49 1.78,0.82c0.27,0.16 0.55,0.35 0.81,0.53c0.51,0.37 0.99,0.79 1.42,1.24c1.95,2.08 2.98,4.99 2.59,8.04l-3.8,29.46c-0.09,0.68 -0.23,1.33 -0.44,1.95c-0.64,1.87 -1.82,3.46 -3.32,4.62c-0.5,0.39 -1.03,0.72 -1.6,1.01c-0.85,0.42 -1.76,0.73 -2.72,0.9c-0.96,0.16 -1.97,0.2 -2.99,0.06l-19.65,-2.53c-1.01,-0.13 -1.97,-0.42 -2.85,-0.82l-0.02,0c-0.29,-0.13 -0.57,-0.27 -0.85,-0.43c-0.28,-0.17 -0.55,-0.35 -0.82,-0.54c-0.25,-0.18 -0.48,-0.38 -0.72,-0.59c0,0 -0.01,0 -0.02,0c-0.48,-0.42 -0.9,-0.87 -1.29,-1.37c-0.38,-0.5 -0.72,-1.04 -1,-1.6c-0.01,-0.01 0,-0.02 0,-0.02c-0.14,-0.28 -0.27,-0.56 -0.39,-0.85c0,-0.01 0.01,-0.02 0.01,-0.02c-0.23,-0.59 -0.41,-1.21 -0.52,-1.84c0,-0.01 0,-0.01 0,-0.02c-0.16,-0.95 -0.2,-1.95 -0.07,-2.97l-0.99,7.67c-0.97,7.53 4.31,14.37 11.84,15.34l27.18,3.51c7.53,0.97 14.37,-4.31 15.34,-11.84l5.26,-40.78c0.97,-7.52 -4.31,-14.37 -11.84,-15.34l-27.18,-3.5c-0.24,-0.03 -0.47,-0.07 -0.7,-0.09l0,-0.01z" fill="#000000" id="rect3139" stroke-width="0.69"/>
   <path d="m219.39,214.01l-0.7,5.43c-0.7,5.44 3.1,10.38 8.54,11.08l19.65,2.53c5.43,0.7 10.37,-3.11 11.07,-8.55l0.7,-5.43c-0.7,5.43 -5.64,9.24 -11.07,8.54l-19.65,-2.53c-5.43,-0.7 -9.24,-5.64 -8.54,-11.07z" fill="#000000" id="rect3143" stroke-width="0.69"/>
   <path d="m153.12,117.7a67.15,35.54 0 0 0 -63.23,23.7a71.24,37.71 0 0 1 59.86,-17.32a71.24,37.71 0 0 1 70.28,31.65a67.15,35.54 0 0 0 0.24,-2.48a67.15,35.54 0 0 0 -67.15,-35.55z" fill="#000000" id="ellipse1008" stroke-width="0.59"/>
   <path d="m194.07,147.31c0,0 -19.46,-32.37 -12.12,-45.17c12.45,-21.67 6.91,-29.5 -0.79,-40.13c-7.71,-10.63 -2.93,-25.51 10.09,-27.9c13.03,-2.4 14.62,-2.4 14.62,-2.4c0,0 -19.4,2.93 -17.54,15.42c1.86,12.49 14.14,15.65 13.82,33.22c-0.2,11.24 -13.79,18.79 -14.16,33.57c-0.53,21.49 6.08,33.39 6.08,33.39z" fill="#000000" id="path972" stroke-width="0.74px"/>
   <path d="m113.65,149.72c0,0 17.49,-28.99 9.18,-43.48c-14.09,-24.53 -9.43,-27.2 -4.43,-37.03c10.34,-19.08 4.2,-29.23 -11.41,-48.21c0,0 12.63,15.75 10.53,29.89c-2.11,14.14 -16.01,17.72 -15.65,37.61c0.23,12.73 13.22,11.23 13.64,27.96c0.6,24.34 -1.86,33.26 -1.86,33.26z" fill="#000000" id="path1013" stroke-width="0.84px"/>
   <path d="m158.22,159.12c0,0 -17.95,-28.01 -12.92,-44.76c5.03,-16.75 12.92,-45.48 5.03,-59.6c-7.9,-14.12 -10.06,-17.95 -10.06,-17.95c0,0 20.35,17.47 21.54,30.4c1.2,12.92 -3.35,27.28 -6.7,41.64c-3.35,14.37 3.11,50.27 3.11,50.27z" fill="#000000" id="path1049" stroke-width="0.94px"/>
   <path d="m237.22,169.74c-2.35,0.05 -4.57,0.72 -6.5,1.86c1.22,-0.25 2.49,-0.35 3.78,-0.24l0,0c0.23,0.02 0.46,0.06 0.69,0.09l26.53,3.42c7.34,0.95 12.5,7.62 11.55,14.97l-5.13,39.8c-0.55,4.25 -3.02,7.75 -6.42,9.78c5.39,-1.15 9.71,-5.57 10.45,-11.36l5.13,-39.79c0.95,-7.35 -4.2,-14.03 -11.55,-14.98l-26.53,-3.42c-0.23,-0.03 -0.46,-0.07 -0.68,-0.09l0,0c-0.45,-0.04 -0.89,-0.05 -1.32,-0.04z" fill="#000000" id="path1079" stroke-width="0.67"/>
  </g>
 </g>
</svg>